<svg width="28" height="28" viewBox="0 0 28 28" fill="none" xmlns="http://www.w3.org/2000/svg">
<path id="Vector" d="M1.44736 0.10563C1.27996 0.0219026 1.09241 -0.0131622 0.906066 0.00442448C0.719719 0.0220111 0.542048 0.0915432 0.393263 0.205111C0.244479 0.318679 0.130554 0.471724 0.0644469 0.646837C-0.00165978 0.82195 -0.0172941 1.0121 0.0193224 1.19566L2.8254 10.8959C2.87772 11.0767 2.97999 11.239 3.12045 11.3643C3.26091 11.4895 3.43386 11.5726 3.61942 11.6039L14.9997 13.51C15.5357 13.616 15.5357 14.384 14.9997 14.49L3.61942 16.3961C3.43386 16.4274 3.26091 16.5105 3.12045 16.6357C2.97999 16.761 2.87772 16.9233 2.8254 17.1041L0.0193224 26.8043C-0.0172941 26.9879 -0.00165978 27.1781 0.0644469 27.3532C0.130554 27.5283 0.244479 27.6813 0.393263 27.7949C0.542048 27.9085 0.719719 27.978 0.906066 27.9956C1.09241 28.0132 1.27996 27.9781 1.44736 27.8944L27.4481 14.894C27.6139 14.8109 27.7534 14.6832 27.8509 14.5253C27.9484 14.3674 28 14.1856 28 14C28 13.8144 27.9484 13.6325 27.8509 13.4747C27.7534 13.3168 27.6139 13.1891 27.4481 13.106L1.44736 0.10563Z" fill="#251A20"/>
</svg>
